<svg id="visual" preserveAspectRatio="none" xml:space="preserve" viewBox="0 0 2256 1504" width="2256" height="1504" xmlns="http://www.w3.org/2000/svg" xmlns:xlink="http://www.w3.org/1999/xlink" version="1.1"><rect x="0" y="0" width="2256" height="1504" fill="#222831"></rect><defs><linearGradient id="grad1_0" x1="33.3%" y1="0%" x2="100%" y2="100%"><stop offset="20%" stop-color="#00adb5" stop-opacity="1"></stop><stop offset="80%" stop-color="#00adb5" stop-opacity="1"></stop></linearGradient></defs><defs><linearGradient id="grad1_1" x1="33.3%" y1="0%" x2="100%" y2="100%"><stop offset="20%" stop-color="#00adb5" stop-opacity="1"></stop><stop offset="80%" stop-color="#2a657b" stop-opacity="1"></stop></linearGradient></defs><defs><linearGradient id="grad1_2" x1="33.3%" y1="0%" x2="100%" y2="100%"><stop offset="20%" stop-color="#222831" stop-opacity="1"></stop><stop offset="80%" stop-color="#2a657b" stop-opacity="1"></stop></linearGradient></defs><defs><linearGradient id="grad2_0" x1="0%" y1="0%" x2="66.7%" y2="100%"><stop offset="20%" stop-color="#00adb5" stop-opacity="1"></stop><stop offset="80%" stop-color="#00adb5" stop-opacity="1"></stop></linearGradient></defs><defs><linearGradient id="grad2_1" x1="0%" y1="0%" x2="66.7%" y2="100%"><stop offset="20%" stop-color="#2a657b" stop-opacity="1"></stop><stop offset="80%" stop-color="#00adb5" stop-opacity="1"></stop></linearGradient></defs><defs><linearGradient id="grad2_2" x1="0%" y1="0%" x2="66.7%" y2="100%"><stop offset="20%" stop-color="#2a657b" stop-opacity="1"></stop><stop offset="80%" stop-color="#222831" stop-opacity="1"></stop></linearGradient></defs><g transform="translate(2256, 0)"><path d="M0 677.8C-44.7 589.8 -89.4 501.8 -160.4 493.6C-231.4 485.4 -328.7 557.1 -398.4 548.4C-468.1 539.7 -510.2 450.6 -509.7 370.3C-509.2 290 -466 218.5 -486.9 158.2C-507.9 98 -592.9 49 -677.8 0L0 0Z" fill="#2c4557"></path><path d="M0 451.9C-29.8 393.2 -59.6 334.5 -106.9 329.1C-154.3 323.6 -219.1 371.4 -265.6 365.6C-312.1 359.8 -340.1 300.4 -339.8 246.9C-339.4 193.3 -310.7 145.6 -324.6 105.5C-338.6 65.3 -395.2 32.7 -451.9 0L0 0Z" fill="#1a889c"></path><path d="M0 225.9C-14.9 196.6 -29.8 167.3 -53.5 164.5C-77.1 161.8 -109.6 185.7 -132.8 182.8C-156 179.9 -170.1 150.2 -169.9 123.4C-169.7 96.7 -155.3 72.8 -162.3 52.7C-169.3 32.7 -197.6 16.3 -225.9 0L0 0Z" fill="#00adb5"></path></g><g transform="translate(0, 1504)"><path d="M0 -677.8C80.4 -685.9 160.9 -693.9 209.5 -644.7C258 -595.4 274.7 -488.8 315.6 -434.4C356.6 -380 421.7 -377.8 480.6 -349.1C539.4 -320.5 592.1 -265.3 623.9 -202.7C655.7 -140.1 666.8 -70.1 677.8 0L0 0Z" fill="#2c4557"></path><path d="M0 -451.9C53.6 -457.3 107.3 -462.6 139.6 -429.8C172 -396.9 183.2 -325.9 210.4 -289.6C237.7 -253.4 281.1 -251.9 320.4 -232.8C359.6 -213.6 394.7 -176.9 415.9 -135.1C437.2 -93.4 444.5 -46.7 451.9 0L0 0Z" fill="#1a889c"></path><path d="M0 -225.9C26.8 -228.6 53.6 -231.3 69.8 -214.9C86 -198.5 91.6 -162.9 105.2 -144.8C118.9 -126.7 140.6 -125.9 160.2 -116.4C179.8 -106.8 197.4 -88.4 208 -67.6C218.6 -46.7 222.3 -23.4 225.9 0L0 0Z" fill="#00adb5"></path></g></svg>