<svg id="visual" viewBox="0 0 1920 1080" width="1920" height="1080" xmlns="http://www.w3.org/2000/svg" xmlns:xlink="http://www.w3.org/1999/xlink" version="1.1"><rect x="0" y="0" width="1920" height="1080" fill="#222831"></rect><defs><linearGradient id="grad1_0" x1="43.8%" y1="0%" x2="100%" y2="100%"><stop offset="14.444444444444446%" stop-color="#00adb5" stop-opacity="1"></stop><stop offset="85.55555555555554%" stop-color="#00adb5" stop-opacity="1"></stop></linearGradient></defs><defs><linearGradient id="grad1_1" x1="43.8%" y1="0%" x2="100%" y2="100%"><stop offset="14.444444444444446%" stop-color="#00adb5" stop-opacity="1"></stop><stop offset="85.55555555555554%" stop-color="#2a657b" stop-opacity="1"></stop></linearGradient></defs><defs><linearGradient id="grad1_2" x1="43.8%" y1="0%" x2="100%" y2="100%"><stop offset="14.444444444444446%" stop-color="#222831" stop-opacity="1"></stop><stop offset="85.55555555555554%" stop-color="#2a657b" stop-opacity="1"></stop></linearGradient></defs><defs><linearGradient id="grad2_0" x1="0%" y1="0%" x2="56.3%" y2="100%"><stop offset="14.444444444444446%" stop-color="#00adb5" stop-opacity="1"></stop><stop offset="85.55555555555554%" stop-color="#00adb5" stop-opacity="1"></stop></linearGradient></defs><defs><linearGradient id="grad2_1" x1="0%" y1="0%" x2="56.3%" y2="100%"><stop offset="14.444444444444446%" stop-color="#2a657b" stop-opacity="1"></stop><stop offset="85.55555555555554%" stop-color="#00adb5" stop-opacity="1"></stop></linearGradient></defs><defs><linearGradient id="grad2_2" x1="0%" y1="0%" x2="56.3%" y2="100%"><stop offset="14.444444444444446%" stop-color="#2a657b" stop-opacity="1"></stop><stop offset="85.55555555555554%" stop-color="#222831" stop-opacity="1"></stop></linearGradient></defs><g transform="translate(1920, 0)"><path d="M0 540C-35.7 477.6 -71.4 415.2 -133.5 410.9C-195.6 406.6 -284 460.4 -317.4 436.9C-350.8 413.3 -329.1 312.5 -355.2 258C-381.2 203.6 -454.8 195.6 -493.6 160.4C-532.3 125.1 -536.2 62.6 -540 0L0 0Z" fill="#2c4557"></path><path d="M0 360C-23.8 318.4 -47.6 276.8 -89 273.9C-130.4 271 -189.3 306.9 -211.6 291.2C-233.9 275.6 -219.4 208.3 -236.8 172C-254.1 135.7 -303.2 130.4 -329.1 106.9C-354.9 83.4 -357.4 41.7 -360 0L0 0Z" fill="#1a889c"></path><path d="M0 180C-11.9 159.2 -23.8 138.4 -44.5 137C-65.2 135.5 -94.7 153.5 -105.8 145.6C-116.9 137.8 -109.7 104.2 -118.4 86C-127.1 67.9 -151.6 65.2 -164.5 53.5C-177.4 41.7 -178.7 20.9 -180 0L0 0Z" fill="#00adb5"></path></g><g transform="translate(0, 1080)"><path d="M0 -540C67.2 -549 134.4 -558.1 166.9 -513.6C199.3 -469.1 197 -371.1 243.9 -335.7C290.8 -300.4 387 -327.7 413.4 -300.4C439.9 -273 396.6 -191.1 406.1 -132C415.6 -72.8 477.8 -36.4 540 0L0 0Z" fill="#2c4557"></path><path d="M0 -360C44.8 -366 89.6 -372 111.2 -342.4C132.9 -312.7 131.3 -247.4 162.6 -223.8C193.9 -200.3 258 -218.5 275.6 -200.2C293.2 -182 264.4 -127.4 270.7 -88C277.1 -48.5 318.5 -24.3 360 0L0 0Z" fill="#1a889c"></path><path d="M0 -180C22.4 -183 44.8 -186 55.6 -171.2C66.4 -156.4 65.7 -123.7 81.3 -111.9C96.9 -100.1 129 -109.2 137.8 -100.1C146.6 -91 132.2 -63.7 135.4 -44C138.5 -24.3 159.3 -12.1 180 0L0 0Z" fill="#00adb5"></path></g></svg>